HIERARCHY
ROOT pelvis
{
	OFFSET 0.003123 -0.351407 0.012037
	CHANNELS 6 Xposition Yposition Zposition Zrotation Yrotation Xrotation 
	JOINT left_hip
	{
		OFFSET 0.058189 -0.092763 -0.026001
		CHANNELS 3 Zrotation Yrotation Xrotation
		JOINT left_knee
		{
			OFFSET 0.054695 -0.378753 -0.009396
			CHANNELS 3 Zrotation Yrotation Xrotation
			JOINT left_ankle
			{
				OFFSET -0.043453 -0.403059 -0.031876
				CHANNELS 3 Zrotation Yrotation Xrotation
				JOINT left_foot
				{
					OFFSET 0.047257 -0.057997 0.118216
					CHANNELS 3 Zrotation Yrotation Xrotation
					End Site
					{
						OFFSET 0.000000 0.000000 0.000000
					}
				}
			}
		}
	}
	JOINT right_hip
	{
		OFFSET -0.063267 -0.103908 -0.021250
		CHANNELS 3 Zrotation Yrotation Xrotation
		JOINT right_knee
		{
			OFFSET -0.044210 -0.362380 -0.016824
			CHANNELS 3 Zrotation Yrotation Xrotation
			JOINT right_ankle
			{
				OFFSET 0.015417 -0.410728 -0.020192
				CHANNELS 3 Zrotation Yrotation Xrotation
				JOINT right_foot
				{
					OFFSET -0.038812 -0.058328 0.119049
					CHANNELS 3 Zrotation Yrotation Xrotation
					End Site
					{
						OFFSET 0.000000 0.000000 0.000000
					}
				}
			}
		}
	}
	JOINT spine_1
	{
		OFFSET -0.002763 0.109891 -0.027618
		CHANNELS 3 Zrotation Yrotation Xrotation
		JOINT spine_2
		{
			OFFSET 0.009448 0.131853 -0.005940
			CHANNELS 3 Zrotation Yrotation Xrotation
			JOINT spine_3
			{
				OFFSET -0.011330 0.052235 0.028447
				CHANNELS 3 Zrotation Yrotation Xrotation
				JOINT neck
				{
					OFFSET -0.012164 0.165167 -0.031615
					CHANNELS 3 Zrotation Yrotation Xrotation
					JOINT head
					{
						OFFSET 0.024783 0.160452 0.020737
						CHANNELS 3 Zrotation Yrotation Xrotation
						End Site
						{
							OFFSET 0.000000 0.000000 0.000000
						}
					}
				}
				JOINT left_collar
				{
					OFFSET 0.046364 0.084944 -0.007220
					CHANNELS 3 Zrotation Yrotation Xrotation
					JOINT left_shoulder
					{
						OFFSET 0.119239 0.057728 -0.015461
						CHANNELS 3 Zrotation Yrotation Xrotation
						JOINT left_elbow
						{
							OFFSET 0.254123 -0.072151 -0.042459
							CHANNELS 3 Zrotation Yrotation Xrotation
							JOINT left_wrist
							{
								OFFSET 0.251987 0.023221 -0.002472
								CHANNELS 3 Zrotation Yrotation Xrotation
								JOINT left_index_1
								{
									OFFSET 0.101902 -0.008688 0.019351
									CHANNELS 3 Zrotation Yrotation Xrotation
									JOINT left_index_2
									{
										OFFSET 0.030149 -0.011154 0.001151
										CHANNELS 3 Zrotation Yrotation Xrotation
										JOINT left_index_3
										{
											OFFSET 0.006504 -0.021577 -0.002433
											CHANNELS 3 Zrotation Yrotation Xrotation
											End Site
											{
												OFFSET 0.000000 0.000000 0.000000
											}
										}
									}
								}
								JOINT left_middle_1
								{
									OFFSET 0.109398 -0.006328 -0.003981
									CHANNELS 3 Zrotation Yrotation Xrotation
									JOINT left_middle_2
									{
										OFFSET 0.026472 -0.015218 -0.004641
										CHANNELS 3 Zrotation Yrotation Xrotation
										JOINT left_middle_3
										{
											OFFSET 0.005022 -0.023347 -0.001911
											CHANNELS 3 Zrotation Yrotation Xrotation
											End Site
											{
												OFFSET 0.000000 0.000000 0.000000
											}
										}
									}
								}
								JOINT left_pinky_1
								{
									OFFSET 0.084047 -0.014539 -0.043750
									CHANNELS 3 Zrotation Yrotation Xrotation
									JOINT left_pinky_2
									{
										OFFSET 0.012124 -0.014448 -0.005375
										CHANNELS 3 Zrotation Yrotation Xrotation
										JOINT left_pinky_3
										{
											OFFSET 0.003798 -0.018853 0.000167
											CHANNELS 3 Zrotation Yrotation Xrotation
											End Site
											{
												OFFSET 0.000000 0.000000 0.000000
											}
										}
									}
								}
								JOINT left_ring_1
								{
									OFFSET 0.097444 -0.009268 -0.027345
									CHANNELS 3 Zrotation Yrotation Xrotation
									JOINT left_ring_2
									{
										OFFSET 0.023561 -0.016057 -0.001895
										CHANNELS 3 Zrotation Yrotation Xrotation
										JOINT left_ring_3
										{
											OFFSET 0.004257 -0.023548 0.000814
											CHANNELS 3 Zrotation Yrotation Xrotation
											End Site
											{
												OFFSET 0.000000 0.000000 0.000000
											}
										}
									}
								}
								JOINT left_thumb_1
								{
									OFFSET 0.040636 -0.017977 0.025611
									CHANNELS 3 Zrotation Yrotation Xrotation
									JOINT left_thumb_2
									{
										OFFSET 0.021637 -0.017639 0.011623
										CHANNELS 3 Zrotation Yrotation Xrotation
										JOINT left_thumb_3
										{
											OFFSET 0.024002 -0.008356 0.006548
											CHANNELS 3 Zrotation Yrotation Xrotation
											End Site
											{
												OFFSET 0.000000 0.000000 0.000000
											}
										}
									}
								}
							}
						}
					}
				}
				JOINT right_collar
				{
					OFFSET -0.047695 0.084339 -0.013400
					CHANNELS 3 Zrotation Yrotation Xrotation
					JOINT right_shoulder
					{
						OFFSET -0.102578 0.053524 -0.012669
						CHANNELS 3 Zrotation Yrotation Xrotation
						JOINT right_elbow
						{
							OFFSET -0.271150 -0.036492 -0.026467
							CHANNELS 3 Zrotation Yrotation Xrotation
							JOINT right_wrist
							{
								OFFSET -0.249267 -0.004533 -0.015325
								CHANNELS 3 Zrotation Yrotation Xrotation
								JOINT right_index_1
								{
									OFFSET -0.099881 -0.011783 0.019600
									CHANNELS 3 Zrotation Yrotation Xrotation
									JOINT right_index_2
									{
										OFFSET -0.030148 -0.011154 0.001151
										CHANNELS 3 Zrotation Yrotation Xrotation
										JOINT right_index_3
										{
											OFFSET -0.006505 -0.021577 -0.002432
											CHANNELS 3 Zrotation Yrotation Xrotation
											End Site
											{
												OFFSET 0.000000 0.000000 0.000000
											}
										}
									}
								}
								JOINT right_middle_1
								{
									OFFSET -0.107376 -0.009422 -0.003734
									CHANNELS 3 Zrotation Yrotation Xrotation
									JOINT right_middle_2
									{
										OFFSET -0.026472 -0.015218 -0.004641
										CHANNELS 3 Zrotation Yrotation Xrotation
										JOINT right_middle_3
										{
											OFFSET -0.005022 -0.023347 -0.001911
											CHANNELS 3 Zrotation Yrotation Xrotation
											End Site
											{
												OFFSET 0.000000 0.000000 0.000000
											}
										}
									}
								}
								JOINT right_pinky_1
								{
									OFFSET -0.082027 -0.017634 -0.043503
									CHANNELS 3 Zrotation Yrotation Xrotation
									JOINT right_pinky_2
									{
										OFFSET -0.012123 -0.014448 -0.005374
										CHANNELS 3 Zrotation Yrotation Xrotation
										JOINT right_pinky_3
										{
											OFFSET -0.003798 -0.018852 0.000167
											CHANNELS 3 Zrotation Yrotation Xrotation
											End Site
											{
												OFFSET 0.000000 0.000000 0.000000
											}
										}
									}
								}
								JOINT right_ring_1
								{
									OFFSET -0.095423 -0.012362 -0.027099
									CHANNELS 3 Zrotation Yrotation Xrotation
									JOINT right_ring_2
									{
										OFFSET -0.023561 -0.016057 -0.001895
										CHANNELS 3 Zrotation Yrotation Xrotation
										JOINT right_ring_3
										{
											OFFSET -0.004257 -0.023548 0.000816
											CHANNELS 3 Zrotation Yrotation Xrotation
											End Site
											{
												OFFSET 0.000000 0.000000 0.000000
											}
										}
									}
								}
								JOINT right_thumb_1
								{
									OFFSET -0.038613 -0.021074 0.025861
									CHANNELS 3 Zrotation Yrotation Xrotation
									JOINT right_thumb_2
									{
										OFFSET -0.021636 -0.017639 0.011623
										CHANNELS 3 Zrotation Yrotation Xrotation
										JOINT right_thumb_3
										{
											OFFSET -0.024004 -0.008353 0.006547
											CHANNELS 3 Zrotation Yrotation Xrotation
											End Site
											{
												OFFSET 0.000000 0.000000 0.000000
											}
										}
									}
								}
							}
						}
					}
				}
			}
		}
	}
}
MOTION
Frames: 4
Frame Time: 0.050000
0.075405 0.960764 -0.024490 -2.750371 -7.369520 -10.111094 0.272000 1.277234 8.509986 -3.321693 0.311279 0.378604 -3.915339 -3.255855 5.949471 0.000000 0.000000 0.000000 -6.249650 -0.178866 8.231783 2.980415 -0.085063 1.856649 -4.065810 -14.340205 14.928088 0.000000 0.000000 0.000000 1.496394 -1.134622 13.976081 -8.859945 -1.081172 -18.967372 9.596197 -0.415852 26.822526 3.689159 0.063555 -4.594164 0.000000 0.000000 0.000000 -15.720653 3.371028 -3.046363 -53.768313 -6.535515 -8.251346 -17.993980 -31.214110 8.607539 2.492077 4.143213 7.958239 -7.867538 7.422038 2.489138 2.637953 1.412153 5.956726 0.000000 0.000000 0.000000 -14.924769 4.194143 -0.945255 -15.516717 2.920972 3.511944 0.000000 0.000000 0.000000 10.276822 -10.739168 -9.241216 -38.274989 -0.701168 -1.059947 0.000000 0.000000 0.000000 -17.837968 0.336589 -1.506124 -19.154111 -1.886157 -4.836908 0.000000 0.000000 0.000000 9.647214 22.435225 19.105634 -7.386787 -7.583528 0.014945 0.000000 0.000000 0.000000 8.514677 3.734012 0.953553 41.691912 13.505405 -2.831681 -18.837260 47.835002 -8.662536 -6.470335 -3.217583 -54.284612 -8.996511 6.735955 0.157333 -13.353204 8.121794 -26.089494 0.000000 0.000000 0.000000 13.093253 10.464152 -4.197009 -9.611669 2.911471 -15.810107 0.000000 0.000000 0.000000 2.467428 24.903540 -29.071463 -2.894450 0.075801 -0.152372 0.000000 0.000000 0.000000 19.603210 19.137335 -4.684917 -14.559901 2.646629 -17.168604 0.000000 0.000000 0.000000 -27.095707 -6.647509 -6.725242 16.319323 -1.941845 5.758728 0.000000 0.000000 0.000000 
0.072578 0.961086 -0.025810 -2.582394 -7.277885 -10.344052 0.222065 1.290095 8.573518 -3.241990 0.288009 0.556673 -3.904261 -3.173892 6.017336 0.000000 0.000000 0.000000 -6.336217 -0.159070 7.950345 3.123466 -0.083407 2.703575 -4.153413 -14.349888 14.627978 0.000000 0.000000 0.000000 1.592652 -1.132742 13.912449 -9.429990 -0.466114 -17.569322 10.230780 0.211232 26.387724 3.800071 0.260410 -5.676956 0.000000 0.000000 0.000000 -15.188638 2.143081 -2.311692 -54.150245 -7.136149 -8.202280 -18.192162 -31.683840 8.764030 2.827976 4.014357 7.904863 -9.085217 6.830653 2.254622 4.810238 1.122238 6.419007 0.000000 0.000000 0.000000 -14.273902 4.138776 -0.838136 -18.458438 2.615476 1.576511 0.000000 0.000000 0.000000 9.790144 -10.938457 -9.652546 -36.482231 -0.538231 -0.764290 0.000000 0.000000 0.000000 -19.149606 -0.664308 -2.068301 -16.317469 -1.494901 -4.136112 0.000000 0.000000 0.000000 9.538107 23.147853 19.955818 -6.275850 -9.632424 -0.928631 0.000000 0.000000 0.000000 9.078419 2.218565 0.015210 41.812345 13.168038 -2.790922 -16.077390 47.375234 -7.361804 -6.383266 -4.060317 -53.677665 -11.131091 6.387300 0.360769 -8.792450 9.329317 -24.428140 0.000000 0.000000 0.000000 12.065779 9.813633 -4.140290 -10.528273 2.588597 -15.331050 0.000000 0.000000 0.000000 3.107158 24.901646 -28.703741 -3.055935 0.284324 -0.752377 0.000000 0.000000 0.000000 19.406663 18.671509 -4.607353 -15.240753 2.469055 -17.204586 0.000000 0.000000 0.000000 -28.200853 -6.621242 -7.038282 17.548708 -1.610742 5.955792 0.000000 0.000000 0.000000 
0.069281 0.961409 -0.025810 -2.501349 -7.174292 -10.311915 0.319293 1.273343 8.515529 -3.220549 0.280507 0.609496 -3.918141 -3.138151 6.086795 0.000000 0.000000 0.000000 -6.319636 -0.163451 7.952908 3.297879 -0.094008 2.698669 -4.229112 -14.411737 14.536305 0.000000 0.000000 0.000000 1.454464 -1.119765 13.849113 -9.145799 -0.554554 -17.519245 10.643174 1.337300 25.998605 3.810531 0.147161 -4.925533 0.000000 0.000000 0.000000 -14.998900 1.398382 -2.009300 -54.299251 -6.751821 -8.368730 -18.691171 -31.851892 8.902062 2.110363 4.109806 7.968665 -7.443169 7.839415 2.644736 3.952544 1.129319 5.814646 0.000000 0.000000 0.000000 -11.039834 2.296618 -0.954091 -18.291061 2.874368 2.099403 0.000000 0.000000 0.000000 11.217159 -10.719606 -8.739197 -36.094761 -3.689179 -7.114124 0.000000 0.000000 0.000000 -15.325347 -2.596480 -2.676223 -21.451182 -2.190492 -5.566133 0.000000 0.000000 0.000000 9.553406 21.247918 17.832510 -8.413752 -5.078255 1.022952 0.000000 0.000000 0.000000 9.541697 1.318481 -0.495481 42.323391 11.835627 -2.959191 -13.976952 47.065147 -6.331052 -5.855336 -4.001505 -53.429035 -9.609893 5.354259 0.416063 -14.880697 6.782847 -25.422849 0.000000 0.000000 0.000000 12.587433 8.255143 -3.563975 -12.835781 2.272037 -15.951908 0.000000 0.000000 0.000000 3.649083 24.606292 -28.362494 -3.716727 0.251065 -0.639982 0.000000 0.000000 0.000000 19.660236 18.075440 -4.276077 -15.164405 2.588031 -17.460182 0.000000 0.000000 0.000000 -27.339539 -6.498909 -6.904691 17.142539 -0.921903 5.515837 0.000000 0.000000 0.000000 
0.065747 0.961731 -0.025810 -2.476061 -6.680027 -10.094266 0.484341 1.253881 8.496347 -3.174024 0.304507 0.177519 -4.162052 -3.373801 6.321231 0.000000 0.000000 0.000000 -6.146995 -0.170795 7.500057 3.373519 -0.095696 3.294858 -4.527015 -14.729588 14.398889 0.000000 0.000000 0.000000 1.546327 -1.098287 13.543814 -9.080128 -0.548174 -17.496878 10.502204 1.081380 26.026587 3.772123 0.147778 -4.894932 0.000000 0.000000 0.000000 -14.743610 1.187877 -1.856176 -54.489767 -6.821417 -8.379778 -18.542040 -31.814362 8.845279 1.927054 4.741649 9.021462 -7.477524 6.420759 2.221313 3.612373 0.527275 3.507713 0.000000 0.000000 0.000000 -12.186666 2.209406 -1.252536 -17.919304 2.831744 1.856636 0.000000 0.000000 0.000000 11.776570 -13.159081 -11.910731 -38.167987 -0.696437 -1.423742 0.000000 0.000000 0.000000 -16.813973 -2.556888 -2.822489 -20.611561 -1.930583 -5.317664 0.000000 0.000000 0.000000 9.153610 21.569160 18.532920 -7.136571 -9.484223 -0.524734 0.000000 0.000000 0.000000 10.079841 1.168335 -0.653688 42.956697 10.547698 -3.280751 -12.708434 47.828216 -5.930232 -5.709114 -3.611306 -51.914771 -9.723541 4.953902 0.240776 -16.899346 5.853398 -24.785902 0.000000 0.000000 0.000000 10.560552 9.123191 -4.142939 -12.983822 1.798100 -14.157102 0.000000 0.000000 0.000000 1.165334 23.859625 -28.935452 -2.033697 0.014092 0.036272 0.000000 0.000000 0.000000 17.718195 17.906539 -5.236523 -15.006926 2.392711 -16.813012 0.000000 0.000000 0.000000 -26.403622 -7.156400 -6.624646 16.590067 0.640241 4.560738 0.000000 0.000000 0.000000 
